<?xml version="1.0" encoding="utf-8"?><svg width="316" height="301" viewBox="0 0 316 301" xmlns="http://www.w3.org/2000/svg" xmlns:xlink="http://www.w3.org/1999/xlink"><svg width="24" height="24" viewBox="-4 -4 24 24" id="aside_cafe_make" x="179" y="253" xmlns="http://www.w3.org/2000/svg"><path fill="#FFF" fill-rule="evenodd" d="M13.112 10.568h-.965a6.69 6.69 0 0 0 .066-.938V7.11h.9c.913 0 1.656.775 1.656 1.729 0 .953-.743 1.728-1.657 1.728M0 5.828V9.63C0 13.148 2.734 16 6.107 16c2.623 0 4.86-1.726 5.724-4.148h1.281c1.595 0 2.888-1.349 2.888-3.012 0-1.664-1.293-3.013-2.888-3.013H0zM10.698 0H6.913C4.778 0 3.037 1.75 2.935 3.95H6.72c2.134 0 3.875-1.75 3.977-3.95"/></svg><svg width="26" height="25" viewBox="-4 -4 26 25" id="aside_icon_link1" x="262" y="145" xmlns="http://www.w3.org/2000/svg"><g fill="none" fill-rule="evenodd"><path fill="#555" d="M12 0H8.099C5.899 0 4.105 1.772 4 4h3.901c2.2 0 3.994-1.772 4.099-4"/><path stroke="#555" d="M1 6v3.738C1 13.196 3.773 16 7.194 16 10.473 16 13 13.239 13 9.738V6H1zm13.473 5H13c.066-.443.1-.896.1-1.357V6h1.373C15.866 6 17 7.121 17 8.5S15.866 11 14.473 11"/></g></svg><svg width="32" height="32" viewBox="-4 -4 32 32" id="aside_icon_link2" x="178" y="113" xmlns="http://www.w3.org/2000/svg"><g fill="none" fill-rule="evenodd"><path d="M0 0h24v24H0z"/><g transform="translate(3 4)"><rect width="8.5" height="15" x=".5" y=".5" stroke="#555" rx="1"/><rect width="8.5" height="15" x="9" y=".5" stroke="#555" rx="1"/><path fill="#555" d="M10.5 5H16v1h-5.5zm0 2H16v1h-5.5zm0 2h3v1h-3z"/></g></g></svg><svg width="26" height="26" viewBox="-4 -4 26 26" id="aside_icon_link3" x="262" y="170" xmlns="http://www.w3.org/2000/svg"><defs><path id="ada" d="M0 18h18V0H0z"/></defs><g fill="none" fill-rule="evenodd"><path stroke="#555" stroke-linejoin="round" d="M15.632 7.105a6.632 6.632 0 0 0-13.263 0v6.632h13.263V7.105z"/><path stroke="#555" d="M9.092 4.012a2.769 2.769 0 0 0-2.768 2.77"/><mask id="adb" fill="#fff"><use xlink:href="#ada"/></mask><path stroke="#555" d="M.474 17.526h17.052v-3.79H.474z" mask="url(#adb)"/></g></svg><svg width="56" height="49" viewBox="-4 -4 56 49" id="aside_link_gamecafe" y="160" xmlns="http://www.w3.org/2000/svg"><g fill="none"><path fill="#E7ECED" d="M47.258 24.816v2.97c0 6.532-5.345 11.876-11.877 11.876H12.62C6.087 39.662.742 34.318.742 27.786v-2.97c0-6.531 5.345-11.876 11.877-11.876H35.38c6.532 0 11.877 5.345 11.877 11.876z"/><path fill="#A8ADAF" d="M20.536 24.816v4.949h-3.959v3.959H11.63v-3.96H7.67v-4.948h3.959v-3.958h4.948v3.958z"/><path fill="#F4661E" d="M39.835 25.311a2.475 2.475 0 0 1 0 4.949 2.475 2.475 0 0 1 0-4.949z"/><path fill="#43B05C" d="M27.959 25.311a2.475 2.475 0 0 1 0 4.949 2.475 2.475 0 0 1 0-4.949z"/><path fill="#FFD248" d="M33.897 30.26a2.475 2.475 0 0 1 0 4.948 2.475 2.475 0 0 1 0-4.948z"/><path fill="#31C0D8" d="M33.897 19.373a2.475 2.475 0 0 1 0 4.949 2.475 2.475 0 0 1 0-4.949z"/><g fill="#231F20"><path d="M35.381 12.198H24.742V7.992c0-.248.174-.248.248-.248h6.928c.696 0 1.731-.46 1.731-1.732V.074h-1.484v5.938c0 .105 0 .235-.258.248H24.99c-1.271 0-1.732 1.036-1.732 1.732v4.206h-10.64C5.662 12.198 0 17.858 0 24.816v2.97c0 6.957 5.66 12.618 12.619 12.618H35.38c6.96 0 12.62-5.66 12.62-12.618v-2.97c0-6.957-5.66-12.618-12.619-12.618zm11.134 15.588c0 6.139-4.994 11.134-11.134 11.134H12.62c-6.14 0-11.134-4.995-11.134-11.134v-2.97c0-6.139 4.994-11.134 11.134-11.134h22.76c6.14 0 11.134 4.995 11.134 11.134v2.97z"/><path d="M17.32 20.115h-6.433v3.96h-3.96v6.432h3.96v3.959h6.433v-3.959h3.958v-6.433H17.32v-3.959zm2.474 5.444v3.464h-3.959v3.958h-3.464v-3.958H8.412v-3.464h3.96V21.6h3.463v3.959h3.959zm14.103-.495a3.22 3.22 0 0 0 3.216-3.217 3.22 3.22 0 0 0-3.216-3.216 3.22 3.22 0 0 0-3.217 3.216 3.22 3.22 0 0 0 3.217 3.217zm0-4.949c.955 0 1.732.777 1.732 1.732s-.777 1.732-1.732 1.732a1.734 1.734 0 0 1-1.732-1.732c0-.955.777-1.732 1.732-1.732zm0 9.403a3.22 3.22 0 0 0-3.217 3.216 3.22 3.22 0 0 0 3.217 3.217 3.22 3.22 0 0 0 3.216-3.217 3.22 3.22 0 0 0-3.216-3.216zm0 4.948a1.734 1.734 0 0 1-1.732-1.732c0-.955.777-1.732 1.732-1.732s1.732.777 1.732 1.732-.777 1.732-1.732 1.732zm-5.938-9.896a3.22 3.22 0 0 0-3.217 3.216 3.22 3.22 0 0 0 3.217 3.216 3.22 3.22 0 0 0 3.216-3.216 3.22 3.22 0 0 0-3.216-3.217zm0 4.948a1.734 1.734 0 0 1-1.732-1.732c0-.955.777-1.732 1.732-1.732s1.732.777 1.732 1.732-.777 1.732-1.732 1.732zm11.876-4.948a3.22 3.22 0 0 0-3.216 3.216 3.22 3.22 0 0 0 3.216 3.216 3.22 3.22 0 0 0 3.217-3.216 3.22 3.22 0 0 0-3.217-3.217zm0 4.948a1.734 1.734 0 0 1-1.732-1.732c0-.955.777-1.732 1.732-1.732s1.732.777 1.732 1.732-.777 1.732-1.732 1.732zM20.487 16.231h6.928v1.485h-6.928zm1.979 2.969h2.969v1.485h-2.969z"/></g></g></svg><svg width="52" height="48" viewBox="-4 -4 52 48" id="aside_link_popularitycafe" x="210" xmlns="http://www.w3.org/2000/svg"><g fill="none"><path fill="#FFB938" d="M21.074 10.378c.392 0 2.2-1.52 2.621-2.159.21-.318.357-.667.333-1.127-.044-.815-.71-1.487-1.525-1.487-.802 0-1.311.894-1.432.894-.105 0-.594-.894-1.432-.894-.815 0-1.481.672-1.525 1.487-.024.46.124.81.333 1.127.417.634 2.243 2.159 2.627 2.159zm7.326 1.93c-.032.58.155 1.023.42 1.423.526.8 2.83 2.725 3.315 2.725.495 0 2.779-1.918 3.31-2.725.264-.402.45-.842.419-1.423-.055-1.028-.895-1.877-1.925-1.877-1.013 0-1.655 1.13-1.807 1.13-.133 0-.75-1.13-1.808-1.13-1.03 0-1.87.85-1.925 1.877zm.563-8.405c.317 0 1.78-1.228 2.12-1.745.169-.257.288-.539.268-.91-.035-.66-.573-1.203-1.232-1.203-.649 0-1.06.723-1.158.723-.085 0-.48-.723-1.157-.723-.66 0-1.198.544-1.233 1.202-.02.372.1.655.269.911.337.513 1.813 1.745 2.123 1.745z"/><path fill="#F4654F" d="M43.587 23.661c-.883-3.155-4.082-5.21-7.28-4.498-3.147.701-4.361 4.654-4.834 4.76-.413.092-3.11-2.99-6.397-2.256-3.198.712-5.222 3.932-4.68 7.164.305 1.825 1.193 3.069 2.29 4.13 2.19 2.12 10.683 6.505 12.188 6.17 1.538-.344 7.304-7.885 8.394-10.758.543-1.433.818-2.929.319-4.712z"/><path fill="#F4654F" d="M21.21 34.486c-1.035-1-2.462-2.64-2.908-5.305a8.504 8.504 0 0 1 1.248-6.028c1.182-1.83 2.98-3.094 5.064-3.558a6.857 6.857 0 0 1 1.49-.164c1.934 0 3.45.756 4.61 1.495.088.054.145 0 .128-.034-1.125-2.244-3.01-4.025-5.597-4.602-4.406-.982-8.02 3.147-8.574 3.024-.632-.14-2.26-5.439-6.477-6.379-4.286-.955-8.574 1.8-9.757 6.029-.668 2.389-.3 4.394.428 6.314 1.46 3.85 9.188 13.957 11.249 14.416 1.267.283 5.897-1.744 10.123-4.123.101-.07.09-.155.023-.204a9.646 9.646 0 0 1-1.05-.88z"/></g></svg><svg width="56" height="45" viewBox="-4 -4 56 45" id="aside_link_wiucafe" x="56" y="160" xmlns="http://www.w3.org/2000/svg"><g fill="none" fill-rule="evenodd"><path fill="#388BAB" fill-rule="nonzero" d="M32.727 0c-4.883 0-8.726 5.455-8.726 5.455S20.365 0 15.273 0H0v30.545h11.959c5.066 0 9.515 2.38 12.043 6.546 2.524-4.167 6.974-6.546 12.04-6.546H48V0H32.727z"/><path fill="#FFF" d="M9.765 23.472h2.67l2.408-8.923h.056l2.277 8.923h2.688l3.08-12.805h-2.352l-2.072 9.072h-.075l-2.389-9.072h-2.184l-2.427 9.072h-.074l-2.035-9.072h-2.67l3.1 12.805zm14.896 0h2.67V10.667h-2.67v12.805zm10.454.224c3.378 0 4.965-1.55 4.965-4.797v-8.232h-2.427v8.12c0 2.202-.765 2.912-2.445 2.912-1.736 0-2.595-.728-2.595-2.894v-8.138h-2.669v8.288c0 3.173 1.792 4.741 5.17 4.741z"/></g></svg><svg width="26" height="21" viewBox="-4 -4 26 21" id="aside_login_messege" x="262" y="196" xmlns="http://www.w3.org/2000/svg"><g fill="none" fill-rule="evenodd"><path fill="#686867" d="M1 1h10v10H1z"/><path stroke="#FFF" stroke-linecap="square" d="M11.5.5l-11 11m0-11l11 11"/><path fill="#686867" d="M10.99 1.715l6.592 6.653-4.249 4.27-6.608-6.62z"/><path fill="#686867" d="M10.96 1.758L12.672.06l3.883 3.933-1.895 1.844z"/><path stroke="#FFF" stroke-linecap="square" d="M10.5 1.5l7 7"/></g></svg><svg width="20" height="20" viewBox="-4 -4 20 20" id="aside_login_storage" x="210" y="188" xmlns="http://www.w3.org/2000/svg"><path fill="#575756" fill-rule="evenodd" d="M0 0v11h12V2.026H6.53L5.4 0z" opacity=".9"/></svg><svg width="68" height="20" viewBox="-4 -4 68 20" id="aside_naver_logo" x="106" y="72" xmlns="http://www.w3.org/2000/svg"><path d="M8.032.017v5.616L4.186.017H.028v11.131h4.146V5.532l3.846 5.616h4.158V.017zM56.65 6.98c1.474-.412 2.42-1.47 2.42-3.179 0-2.866-2.276-3.79-5.276-3.79h-5.176v11.132h4.14V7.664l2.472 3.479H60L56.65 6.98zm-2.038-2.266c-.24.195-.707.295-1.09.295h-.891V2.816h.874c.417 0 .896.1 1.124.3.228.201.34.474.34.82a.954.954 0 0 1-.357.778zM38.516.017h8.404v2.9h-4.297v1.307h3.958v2.739h-3.958v1.286h4.43v2.9h-8.537zm-16.364 0h-4.725l-4.358 11.131h4.608l.4-1.452h3.424l.4 1.452h4.61L22.151.017zm-3.395 7.102l.974-3.674h.111l.974 3.674h-2.059zM33.111.017L31.07 6.729h-.117L28.909.017h-4.52l4.665 11.131h3.913L37.63.017z" fill="#03C75A"/></svg><svg width="14" height="18" viewBox="-4 -4 14 18" id="aside_notice_more" x="88" y="92" xmlns="http://www.w3.org/2000/svg"><path fill="none" stroke="#333" d="M1 9l4-4-4-4"/></svg><svg width="58" height="43" viewBox="-4 -4 58 43" id="aside_smartbot" y="117" xmlns="http://www.w3.org/2000/svg"><g fill="none" fill-rule="evenodd"><path fill="#03C75A" d="M20.767 10.195h7.686c2.663 0 4.821 2.147 4.821 4.795v10.677c0 2.648-1.876 4.243-4.54 4.243H22.67l-2.657 4.548-2.65-4.548h-6.064c-2.664 0-4.55-1.595-4.55-4.243V14.99c0-2.648 2.16-4.795 4.823-4.795h7.593V6.79a2.621 2.621 0 0 1-1.814-2.492 2.625 2.625 0 0 1 2.617-2.634 2.625 2.625 0 0 1 2.617 2.634 2.623 2.623 0 0 1-1.817 2.494v3.404zM4.095 15.396a.9.9 0 0 1 .898.904v6.964c0 .499-.174 1.206-.67 1.206H1.291c-.496 0-.797-.707-.797-1.206V16.3a.9.9 0 0 1 .898-.904h2.703zm34.568 0a.9.9 0 0 1 .897.904v6.964c0 .499-.238 1.206-.734 1.206h-3.033c-.495 0-.731-.707-.731-1.206V16.3a.9.9 0 0 1 .898-.904h2.703z"/><path fill="#FFF" d="M26.765 17.457a2.455 2.455 0 0 0-3.456 0 2.42 2.42 0 0 0 0 3.435 2.455 2.455 0 0 0 3.456 0 2.418 2.418 0 0 0 0-3.435m-11.78-.71a2.437 2.437 0 0 0-2.444 2.428 2.436 2.436 0 0 0 2.444 2.429 2.436 2.436 0 0 0 2.444-2.429 2.436 2.436 0 0 0-2.444-2.429"/><path fill="#E62637" d="M42.072 5.372h-1.757a2.55 2.55 0 0 1 .151-.55 1.41 1.41 0 0 1 .24-.399.896.896 0 0 1 .314-.233.973.973 0 0 1 .402-.08c.139 0 .256.03.35.092a.67.67 0 0 1 .23.262c.052.112.085.246.098.402a2.07 2.07 0 0 1-.028.506zm.656-1.326a1.14 1.14 0 0 0-.472-.45 1.559 1.559 0 0 0-.721-.153c-.273 0-.531.058-.777.172a2.111 2.111 0 0 0-.65.479c-.2.21-.368.459-.504.748-.137.29-.235.608-.294.956a3.33 3.33 0 0 0-.034.938c.034.287.118.534.251.743.124.21.299.373.523.49.224.118.498.178.82.178.283 0 .562-.048.838-.145a2.85 2.85 0 0 0 .776-.418l-.243-.523a2.075 2.075 0 0 1-.55.298 1.807 1.807 0 0 1-.595.096c-.196 0-.36-.026-.492-.08a.649.649 0 0 1-.308-.249.829.829 0 0 1-.146-.41 2.14 2.14 0 0 1 .03-.588l.018-.112h2.635l.028-.16a4.3 4.3 0 0 0 .064-1.046 1.99 1.99 0 0 0-.197-.764zm1.864 3.441a.795.795 0 0 1-.217-.012c-.067-.013-.115-.041-.144-.084a.393.393 0 0 1-.09-.246c0-.087.014-.215.042-.381l.432-2.558c.165 0 .305.003.422.009.118.005.257.013.42.024l.284-.724a11.833 11.833 0 0 1-1.008.04c.04-.235.081-.456.123-.664.043-.206.099-.421.167-.647l-.964.146-.028.256-.032.282a14.808 14.808 0 0 1-.09.627h-.486l-.11.651h.485l-.475 2.815a1.55 1.55 0 0 0-.015.503.695.695 0 0 0 .448.563c.128.045.284.068.47.068.117 0 .254-.015.407-.045.155-.03.293-.073.416-.132l.006-.58a1.935 1.935 0 0 1-.463.089zm3.22-.474c-.147.167-.301.29-.464.37-.162.08-.332.12-.506.12a.816.816 0 0 1-.285-.043.354.354 0 0 1-.177-.142.398.398 0 0 1-.093-.225 1.13 1.13 0 0 1 .015-.313c.026-.156.074-.29.145-.402a.869.869 0 0 1 .286-.281c.12-.07.264-.124.431-.162.168-.037.366-.056.592-.056.02 0 .054.003.099.008.045.006.093.008.145.008l-.189 1.118zm.874-.434l.27-1.375a3.38 3.38 0 0 0 .08-.812 1.224 1.224 0 0 0-.142-.555.774.774 0 0 0-.383-.306 1.754 1.754 0 0 0-.627-.096c-.144 0-.294.013-.45.04a3.662 3.662 0 0 0-.47.113 5.602 5.602 0 0 0-.494.188 3.646 3.646 0 0 0-.481.254l.264.618c.258-.16.496-.28.713-.361.216-.08.432-.12.648-.12.113 0 .21.013.294.04a.408.408 0 0 1 .2.136.58.58 0 0 1 .082.266c.01.107.002.24-.025.402l-.048.28h-.362c-.355 0-.67.033-.949.097a2.212 2.212 0 0 0-.702.282 1.518 1.518 0 0 0-.483.487c-.12.195-.202.422-.246.679-.038.225-.037.42.002.583a.918.918 0 0 0 .608.668 1.859 1.859 0 0 0 1.265-.057 1.72 1.72 0 0 0 .623-.43.93.93 0 0 0 .183.402.72.72 0 0 0 .286.2l.535-.57a.86.86 0 0 1-.18-.205.666.666 0 0 1-.075-.245 1.004 1.004 0 0 1 .008-.25 10.8 10.8 0 0 1 .056-.353zM38.636 1.79a1.76 1.76 0 0 1-.534 1.002c-.29.276-.613.413-.97.413h-.369l-.295.954.248-.01c.392-.007.684.128.877.407.192.28.252.637.178 1.072-.079.465-.25.84-.514 1.126a1.26 1.26 0 0 1-.96.429c-.22 0-.413-.05-.581-.15a.746.746 0 0 1-.34-.418.93.93 0 0 1-.067-.279.77.77 0 0 1 .007-.28l1.278-3.494c.18-.494.395-.883.65-1.169.253-.285.541-.43.863-.43.22 0 .373.077.46.227.088.15.11.35.069.6zm1.116-.16c.081-.487-.003-.88-.253-1.18-.25-.3-.63-.451-1.137-.451-.622 0-1.184.23-1.683.692-.499.46-.896 1.142-1.192 2.042l-2.154 6.24h.986l.57-1.608c.21.3.415.502.616.606.202.104.45.156.745.156a2.46 2.46 0 0 0 1.694-.665c.229-.215.422-.472.583-.773.16-.3.271-.636.334-1.007.087-.515.06-.939-.083-1.271-.142-.332-.426-.616-.852-.852.56-.193.985-.45 1.275-.772a2.25 2.25 0 0 0 .55-1.158z"/></g></svg><svg width="24" height="24" viewBox="-4 -4 24 24" id="btn_category" x="203" y="253" xmlns="http://www.w3.org/2000/svg"><g fill="none" fill-rule="evenodd"><circle cx="8" cy="8" r="7.5" stroke="#888" opacity=".496"/><path stroke="#A3A9A9" d="M4 6l4 4 4-4"/></g></svg><svg width="24" height="24" viewBox="-4 -4 24 24" id="btn_category_on" x="227" y="253" xmlns="http://www.w3.org/2000/svg"><rect width="100%" height="100%" fill="none"/><g class="ancurrentLayer"><title>Layer 1</title><g fill="none" fill-rule="evenodd" transform="rotate(-180 8 8)"><circle cx="8" cy="8" r="7.5" stroke="#888" opacity=".496"/><path stroke="#A3A9A9" d="M4 6l4 4 4-4"/></g></g></svg><svg width="22" height="22" viewBox="-4 -4 22 22" id="btn_mycafe_edit" y="279" xmlns="http://www.w3.org/2000/svg"><path fill="#CED4D4" fill-rule="evenodd" d="M9.333 7.021c0 1.23-1.03 2.228-2.3 2.228-1.27 0-2.298-.998-2.298-2.228 0-1.23 1.028-2.227 2.298-2.227s2.3.997 2.3 2.227m3.12 0a4.96 4.96 0 0 0-.052-.725L14 4.746l-1.487-2.493-2.216.575a5.431 5.431 0 0 0-1.213-.668L8.487 0H5.513l-.605 2.19c-.414.17-.801.39-1.154.65l-2.267-.587L0 4.747l1.658 1.607a5.146 5.146 0 0 0-.004 1.296L0 9.252l1.487 2.495 2.225-.578c.368.278.774.511 1.21.69L5.512 14h2.974l.584-2.112a5.427 5.427 0 0 0 1.267-.705l2.175.564L14 9.252l-1.594-1.544a5.18 5.18 0 0 0 .048-.687"/></svg><svg width="20" height="16" viewBox="-4 -4 20 16" id="btn_mycafe_more" x="292" y="262" xmlns="http://www.w3.org/2000/svg"><defs><path id="apa" d="M7.41 8.59L12 13.17l4.59-4.58L18 10l-6 6-6-6z"/></defs><g fill="none" fill-rule="evenodd" transform="translate(-6 -8)"><mask id="apb" fill="#fff"><use xlink:href="#apa"/></mask><g fill="#442B2D" fill-opacity=".54" mask="url(#apb)"><path d="M0 0h24v24H0z"/></g></g></svg><svg width="44" height="44" viewBox="-4 -4 44 44" id="btn_mycafe_user" x="210" y="144" xmlns="http://www.w3.org/2000/svg"><g fill="none" fill-rule="evenodd"><circle cx="18" cy="18" r="17.5" stroke="#F5F5F5"/><path d="M6 6h24v24H6z"/><path fill="#9E9E9E" fill-rule="nonzero" d="M22.59 14.59L18 19.17l-4.59-4.58L12 16l6 6 6-6z"/></g></svg><svg width="44" height="44" viewBox="-4 -4 44 44" id="btn_mycafe_user_hover" x="112" y="160" xmlns="http://www.w3.org/2000/svg"><g fill="none" fill-rule="evenodd"><circle cx="18" cy="18" r="18" fill="#F5F5F5"/><path d="M6 6h24v24H6z"/><path fill="#9E9E9E" fill-rule="nonzero" d="M22.59 14.59L18 19.17l-4.59-4.58L12 16l6 6 6-6z"/></g></svg><svg width="44" height="44" viewBox="-4 -4 44 44" id="btn_mycafe_user_on" x="156" y="160" xmlns="http://www.w3.org/2000/svg"><g fill="none" fill-rule="evenodd"><circle cx="18" cy="18" r="17.5" stroke="#F5F5F5"/><path d="M6 6h24v24H6z"/><path fill="#9E9E9E" fill-rule="nonzero" d="M22.59 21L18 16.42 13.41 21 12 19.59l6-6 6 6z"/></g></svg><svg width="44" height="44" viewBox="-4 -4 44 44" id="btn_mycafe_user_on_hover" y="209" xmlns="http://www.w3.org/2000/svg"><g fill="none" fill-rule="evenodd"><circle cx="18" cy="18" r="18" fill="#F5F5F5"/><path d="M6 6h24v24H6z"/><path fill="#9E9E9E" fill-rule="nonzero" d="M22.59 21L18 16.42 13.41 21 12 19.59l6-6 6 6z"/></g></svg><svg width="16" height="22" viewBox="-4 -4 16 22" id="btn_page_next" x="88" y="29" xmlns="http://www.w3.org/2000/svg"><path fill="none" stroke="#333" d="M2 11l4-4-4-4"/></svg><svg width="16" height="22" viewBox="-4 -4 16 22" id="btn_page_prev" x="88" y="51" xmlns="http://www.w3.org/2000/svg"><path fill="none" stroke="#333" d="M6 11L2 7l4-4"/></svg><svg width="15" height="12" viewBox="-4 -4 15 12" id="btn_select" x="178" y="145" xmlns="http://www.w3.org/2000/svg"><path fill="#777" fill-rule="evenodd" d="M3.5 4L7 0H0z"/></svg><svg width="15" height="12" viewBox="-4 -4 15 12" id="btn_select_on" x="193" y="145" xmlns="http://www.w3.org/2000/svg"><path fill="#777" fill-rule="evenodd" d="M3.5 0L0 4h7z"/></svg><svg width="32" height="32" viewBox="-4 -4 32 32" id="btn_side_next" x="82" y="209" xmlns="http://www.w3.org/2000/svg"><g fill="none" fill-rule="evenodd"><path d="M0 0h24v24H0z"/><path fill="#6D6D6D" fill-rule="nonzero" d="M10 15.825L13.709 12 10 8.175 11.142 7 16 12l-4.858 5z"/><circle cx="12" cy="12" r="11.5" stroke="#F5F5F5"/></g></svg><svg width="32" height="32" viewBox="-4 -4 32 32" id="btn_side_next_disabled" x="114" y="209" xmlns="http://www.w3.org/2000/svg"><g fill="none" fill-rule="evenodd"><path d="M0 0h24v24H0z"/><path fill="#B1B1B1" fill-rule="nonzero" d="M10 15.825L13.709 12 10 8.175 11.142 7 16 12l-4.858 5z"/><circle cx="12" cy="12" r="11.5" stroke="#F5F5F5"/></g></svg><svg width="32" height="32" viewBox="-4 -4 32 32" id="btn_side_prev" x="146" y="209" xmlns="http://www.w3.org/2000/svg"><g fill="none" fill-rule="evenodd"><path d="M0 0h24v24H0z"/><path fill="#6D6D6D" fill-rule="nonzero" d="M14 8.175L10.291 12 14 15.825 12.858 17 8 12l4.858-5z"/><circle cx="12" cy="12" r="11.5" stroke="#F5F5F5"/></g></svg><svg width="32" height="32" viewBox="-4 -4 32 32" id="btn_side_prev_disabled" x="178" y="209" xmlns="http://www.w3.org/2000/svg"><g fill="none" fill-rule="evenodd"><path d="M0 0h24v24H0z"/><path fill="#B1B1B1" fill-rule="nonzero" d="M14 8.175L10.291 12 14 15.825 12.858 17 8 12l4.858-5z"/><circle cx="12" cy="12" r="11.5" stroke="#F5F5F5"/></g></svg><svg width="32" height="57" viewBox="-4 -4 32 57" id="btn_theme_next" x="178" xmlns="http://www.w3.org/2000/svg"><g fill="none" fill-rule="evenodd"><path fill="#FFF" d="M0 0h24v49H0z"/><path fill="#6D6D6D" fill-rule="nonzero" d="M9 28.825L12.709 25 9 21.175 10.142 20 15 25l-4.858 5z"/></g></svg><svg width="32" height="56" viewBox="-4 -4 32 56" id="btn_theme_prev" x="178" y="57" xmlns="http://www.w3.org/2000/svg"><g fill="none" fill-rule="evenodd"><path fill="#FFF" d="M0 0h24v48H0z"/><path fill="#6D6D6D" fill-rule="nonzero" d="M15 20.175L11.291 24 15 27.825 13.858 29 9 24l4.858-5z"/></g></svg><svg width="13" height="15" viewBox="-4 -4 13 15" id="btn_title_more" x="58" y="145" xmlns="http://www.w3.org/2000/svg"><path fill="none" stroke="#333" d="M1 6.5l3-3-3-3"/></svg><svg width="24" height="24" viewBox="-4 -4 24 24" id="form_checkbox" x="251" y="253" xmlns="http://www.w3.org/2000/svg"><g fill="none" fill-rule="evenodd"><path d="M-4-4h24v24H-4z"/><path stroke="#D3D3D3" d="M.5.5h15v15H.5z"/></g></svg><svg width="24" height="24" viewBox="-4 -4 24 24" id="form_checkbox_on" x="292" xmlns="http://www.w3.org/2000/svg"><g fill="none" fill-rule="evenodd"><path d="M-4-4h24v24H-4z"/><path stroke="#D3D3D3" d="M.5.5h15v15H.5z"/><path stroke="#03C75A" stroke-width="2" d="M4 7.5L7.26 10 12 5"/></g></svg><svg width="106" height="29" viewBox="-4 -4 106 29" id="gnb_icon_logo" xmlns="http://www.w3.org/2000/svg"><title>ico_logo_ncafegnb_white_21</title><g fill="#FFF" fill-rule="evenodd"><g transform="translate(0 6)"><path d="M15.397 0l-4.029 10.421h3.425l.487-1.38h3.861l.487 1.38h3.425L19.023 0h-3.626zm1.814 3.283l1.148 3.256h-2.297l1.149-3.256zM34.421 0v10.421h8.21V7.867h-4.895V6.462h4.743V3.96h-4.743V2.554h4.793V0zM29.733 0l-2.417 6.852L24.898 0h-3.424l4.029 10.421h3.626L33.158 0zM7.066 0v5.577L3.203 0H0v10.421h3.355V4.844l3.863 5.577h3.203V0zM49.041 4.853h-1.8V2.656h1.8c.611 0 1.107.492 1.107 1.099 0 .606-.496 1.098-1.107 1.098zm2.287 1.993l.318-.132c1.22-.507 1.84-1.604 1.84-2.996 0-1.316-.483-2.29-1.437-2.895C51.162.262 50.012 0 48.43 0h-4.431v10.421h3.294V7.509h1.183l2.007 2.912h3.5l-2.654-3.575z"/></g><g transform="translate(60)"><path d="M31.67 7.218H29v2.025h2.67V20H34V0h-2.33zM36 21h2V0h-2z"/><path d="M29.73 13.009c.363-.03.726-.075 1.089-.135L31 14.642c-.953.12-1.94.21-2.96.269-1.02.06-2.09.089-3.21.089H20v-1.812h1.973V3.812h-1.95V2h10.5v1.812h-1.882v9.286l1.089-.09zm-5.58.179h2.314V3.812H24.15v9.376zM.445 3.948h7.26v3.315L0 7.403l.07 1.923 7.471-.208a4.237 4.237 0 0 1-.633 1.217c-.296.41-.734.85-1.31 1.321-.579.472-1.316.994-2.214 1.565A59.616 59.616 0 0 1 .047 15.17L1.17 17a61.547 61.547 0 0 0 3.677-2.18c.999-.648 1.827-1.247 2.482-1.796.656-.548 1.163-1.074 1.523-1.576a5.857 5.857 0 0 0 .796-1.507 5.921 5.921 0 0 0 .304-1.588C9.984 7.796 10 7.186 10 6.52V2H.445v1.948zM15.033 0H13v21h2.033V9.635H18V7.676h-2.967z"/></g></g></svg><svg width="23" height="26" viewBox="-4 -4 23 26" id="icon-official" x="262" y="217" xmlns="http://www.w3.org/2000/svg"><path fill="#58DC79" fill-rule="evenodd" d="M7.5 17C3.365 17 0 13.636 0 9.5S3.365 2 7.5 2c1.432 0 2.822.405 4.026 1.173L10.49 4.209a6.066 6.066 0 0 0-2.99-.793A6.09 6.09 0 0 0 1.416 9.5 6.09 6.09 0 0 0 7.5 15.584 6.09 6.09 0 0 0 13.584 9.5c0-.914-.205-1.8-.61-2.635l-.052-.107-5.886 5.886-3.628-3.628 1.191-1.192 2.437 2.437 5.912-5.913A7.459 7.459 0 0 1 15 9.5c0 4.136-3.364 7.5-7.5 7.5"/></svg><svg width="26" height="26" viewBox="-4 -4 26 26" id="icon-powercafe" x="140" y="117" xmlns="http://www.w3.org/2000/svg"><g fill="none" fill-rule="evenodd"><path fill="#03C75A" d="M1.5 2h15A1.5 1.5 0 0 1 18 3.5v7.177a4 4 0 0 1-2.507 3.71L9.746 16.7a2 2 0 0 1-1.492 0l-5.747-2.312A4 4 0 0 1 0 10.677V3.5A1.5 1.5 0 0 1 1.5 2z"/><path fill="#FFF" d="M11.232 6.392H9.555V5.4h4.912v.993h-1.65l1.037.109-.182 1.14h.766v.999H9.577v-1h.803l-.132-1.176.984-.072zm.148 0l.073 1.249h1.168l.094-1.249H11.38zm-2.855 5.314h-1.08V8.428h-.401v2.995H5.985V5.097h1.059v2.362h.401V5h1.08v6.706zm-2.86-2.503l.08.931c-.511.134-1.6.179-2.212.171L3 10.298V5.753h2.51v.924H4.14v2.667c.569 0 1.167-.06 1.525-.141zM15 11.023H9.059v-.99h1.292V8.968h1.145v1.065h1.037V8.968h1.153v1.065H15v.99z"/></g></svg><svg width="26" height="26" viewBox="-4 -4 26 26" id="icon-star" y="253" xmlns="http://www.w3.org/2000/svg"><g fill="none" fill-rule="evenodd"><path fill="#666FEB" d="M1.5 2h15A1.5 1.5 0 0 1 18 3.5v7.177a4 4 0 0 1-2.507 3.71L9.746 16.7a2 2 0 0 1-1.492 0l-5.747-2.312A4 4 0 0 1 0 10.677V3.5A1.5 1.5 0 0 1 1.5 2z"/><path fill="#FFF" fill-rule="nonzero" d="M8.781 10.828H2.945v-.788h5.836v.788zm-.16-2.783l-.427.803c-.798-.166-1.98-.81-2.342-1.786-.355.975-1.493 1.613-2.32 1.785-.145-.27-.297-.532-.435-.802 1.059-.135 2.248-.96 2.248-2.183v-.397h1.03v.397c0 1.223 1.174 2.04 2.247 2.183zm1.777 1.237c.094.008.203.008.326.008.689 0 1.668-.067 2.204-.173.022.255.065.503.087.758-.783.15-1.689.225-2.646.225-.304 0-.616-.015-.92-.015V5.592h2.972v.773h-2.023v.997h1.928v.795h-1.928v1.125zM14.284 5v2.475h.855v.817h-.855v3.39h-.95V5h.95z"/><path fill="#FFF" fill-rule="nonzero" d="M8.781 10.828H2.945v-.788h5.836v.788zm-.16-2.783l-.427.803c-.798-.166-1.98-.81-2.342-1.786-.355.975-1.493 1.613-2.32 1.785-.145-.27-.297-.532-.435-.802 1.059-.135 2.248-.96 2.248-2.183v-.397h1.03v.397c0 1.223 1.174 2.04 2.247 2.183zm1.829 1.237c.094.008.203.008.326.008.689 0 1.668-.067 2.204-.173.022.255.065.503.087.758-.783.15-1.69.225-2.646.225-.305 0-.616-.015-.921-.015V5.592h2.973v.773H10.45v.997h1.928v.795H10.45v1.125zm4-4.282v2.475h.855v.817h-.855v3.39h-.95V5h.95z"/></g></svg><svg width="67" height="22" viewBox="-4 -4 67 22" id="icon-star-txt" x="106" y="92" xmlns="http://www.w3.org/2000/svg"><g fill="none" fill-rule="evenodd"><path stroke="#FF4947" d="M7 .5a6.5 6.5 0 0 0 0 13h45a6.5 6.5 0 1 0 0-13H7z"/><path fill="#FF2F3B" d="M11.997 6.177a.067.067 0 0 0-.064-.047H9.738l-.674-2.084a.067.067 0 0 0-.127 0l-.675 2.085H6.067a.067.067 0 0 0-.04.12l1.78 1.287-.683 2.087a.067.067 0 0 0 .103.075L9 8.406 10.773 9.7a.067.067 0 1 0 .103-.075l-.683-2.087 1.78-1.286a.067.067 0 0 0 .024-.075m41 0a.067.067 0 0 0-.064-.047h-2.195l-.674-2.084a.067.067 0 0 0-.127 0l-.675 2.085h-2.195a.067.067 0 0 0-.04.12l1.78 1.287-.683 2.087a.067.067 0 0 0 .103.075L50 8.406 51.773 9.7a.067.067 0 1 0 .103-.075l-.683-2.087 1.78-1.286a.067.067 0 0 0 .024-.075m-31.815.637l-.378.576c-1.323-.396-2.601-1.512-2.925-2.313-.279.801-1.53 1.917-2.898 2.304l-.36-.585c1.278-.252 2.916-1.467 2.916-2.754v-.621h.711v.621c0 1.287 1.728 2.502 2.934 2.772zm.261 2.736h-7.101v-.576h7.101v.576zm1.575-1.359c1.368 0 2.934-.09 3.708-.27l.081.576c-.882.162-2.385.288-3.834.288h-.648V3.493h3.771v.567h-3.078v1.665h2.907v.558h-2.907v1.908zm5.058-5.427v3.123h1.269v.576h-1.269v4.167h-.675V2.764h.675zm7.704 0V6.04h1.287v.585H35.78v4.005h-.684V2.764h.684zm-2.043.846c-.045 2.556-1.521 4.401-3.546 5.454l-.423-.54c1.962-.909 3.087-2.565 3.231-4.338h-2.961V3.61h3.699zm10.116 3.366h-.684V2.764h.684v4.212zm.009 3.546h-5.076V7.408h.684v.999h3.708v-.999h.684v3.114zm-.684-.558v-.999H39.47v.999h3.708zm-3.519-6.813c1.107 0 2.016.72 2.016 1.836 0 1.125-.909 1.827-2.016 1.827-1.098 0-2.025-.702-2.025-1.818 0-1.107.918-1.845 2.025-1.845zm0 .594c-.774 0-1.341.504-1.341 1.242 0 .756.567 1.26 1.341 1.26.801 0 1.332-.504 1.332-1.251 0-.738-.522-1.251-1.332-1.251z"/></g></svg><svg width="26" height="26" viewBox="-4 -4 26 26" id="icon-wiu" x="26" y="253" xmlns="http://www.w3.org/2000/svg"><g fill="none" fill-rule="evenodd"><path fill="#2C82D8" fill-rule="nonzero" d="M12.273 2C10.442 2 9 4.045 9 4.045S7.637 2 5.727 2H1.491A1.5 1.5 0 0 0 0 3.502v8.95c0 .83.667 1.503 1.494 1.503h2.99c1.4 0 3.069.733 4.517 2.295 1.446-1.563 3.115-2.295 4.515-2.295h2.99A1.5 1.5 0 0 0 18 12.453V3.502C18 2.672 17.319 2 16.496 2h-4.223z"/><path fill="#FFF" d="M3.662 10.802h1.001l.903-3.346h.021l.854 3.346h1.008L8.604 6h-.882l-.777 3.402h-.028L6.021 6h-.819l-.91 3.402h-.028L3.501 6H2.5l1.162 4.802zm5.586 0h1.001V6H9.248v4.802zm3.92.084c1.267 0 1.862-.581 1.862-1.799V6h-.91v3.045c0 .826-.287 1.092-.917 1.092-.651 0-.973-.273-.973-1.085V6h-1.001v3.108c0 1.19.672 1.778 1.939 1.778z"/></g></svg><svg width="38" height="38" viewBox="-4 -4 38 38" id="icon_btn_option" x="44" y="209" xmlns="http://www.w3.org/2000/svg"><path fill="#959595" fill-rule="evenodd" d="M15.5 22a1.5 1.5 0 1 0 0-3 1.5 1.5 0 0 0 0 3zm0-6a1.5 1.5 0 1 1 0-3 1.5 1.5 0 0 1 0 3zm0-6a1.5 1.5 0 1 1 0-3 1.5 1.5 0 0 1 0 3z"/></svg><svg width="41" height="28" viewBox="-4 -4 41 28" id="icon_dormancy" x="58" y="117" xmlns="http://www.w3.org/2000/svg"><title>icon / diapause</title><g transform="translate(1 1)" fill="none" fill-rule="evenodd"><rect stroke-opacity=".5" stroke="#FF5959" x=".5" y=".5" width="30" height="17" rx="8.5"/><path d="M13.755 8.248c0 .979-1.265 1.452-2.992 1.452-1.716 0-2.981-.473-2.981-1.452 0-1.012 1.265-1.474 2.981-1.474 1.727 0 2.992.462 2.992 1.474zM9.498 13.77v-2.783h2.486v2.783h.836v-2.783h2.277v-.704H6.418v.704h2.244v2.783h.836zm5.148-7.425v-.693H6.891v.693h7.755zm-1.793 1.903c0-.583-1.122-.781-2.09-.781-.946 0-2.09.198-2.09.781 0 .539 1.144.748 2.09.748.968 0 2.09-.209 2.09-.748zm-.484-3.278v-.704H9.157v.704h3.212zm10.582 1.551h-1.793v-.693h1.793V4.156h.836v6.985h-.836V8.644h-1.793v-.693h1.793v-1.43zm1.045 6.93h-6.402v-2.948h.836v2.244h5.566v.704zm-3.245-3.949h-4.389V5.014h4.389v4.488zm-.847-.682V5.707h-2.706V8.82h2.706z" fill="#FF5959"/></g></svg><svg width="23" height="26" viewBox="-4 -4 23 26" id="icon_formal" x="52" y="253" xmlns="http://www.w3.org/2000/svg"><path fill="#58DC79" fill-rule="evenodd" d="M7.5 17C3.365 17 0 13.636 0 9.5S3.365 2 7.5 2c1.432 0 2.822.405 4.026 1.173L10.49 4.209a6.066 6.066 0 0 0-2.99-.793A6.09 6.09 0 0 0 1.416 9.5 6.09 6.09 0 0 0 7.5 15.584 6.09 6.09 0 0 0 13.584 9.5c0-.914-.205-1.8-.61-2.635l-.052-.107-5.886 5.886-3.628-3.628 1.191-1.192 2.437 2.437 5.912-5.913A7.459 7.459 0 0 1 15 9.5c0 4.136-3.364 7.5-7.5 7.5"/></svg><svg width="41" height="28" viewBox="-4 -4 41 28" id="icon_manager" x="99" y="117" xmlns="http://www.w3.org/2000/svg"><title>icon_list_mycafe</title><g transform="translate(1 1)" fill="none" fill-rule="evenodd"><rect stroke="#AFE0BE" x=".5" y=".5" width="30" height="17" rx="8.5"/><path d="M14.184 6.312c0 1.144-1.276 1.98-3.421 1.98-2.156 0-3.41-.836-3.41-1.98 0-1.122 1.254-1.958 3.399-1.958 2.156 0 3.432.836 3.432 1.958zm-2.695 5.401h-1.276V9.942H6.33V8.919h8.855v1.023h-3.696v1.771zm2.673 1.892H7.463v-2.794h1.276v1.782h5.423v1.012zm-1.309-7.271c0-.605-.803-1.001-2.101-1.001-1.265 0-2.079.396-2.079 1.001 0 .572.814.957 2.079.957 1.298 0 2.101-.385 2.101-.957zm11.11 5.566c0 1.188-1.243 1.958-3.366 1.958s-3.355-.77-3.355-1.958c0-1.221 1.232-1.98 3.355-1.98s3.366.759 3.366 1.98zm-3.014-4.928c0 1.386-1.1 2.255-2.53 2.255-1.408 0-2.541-.869-2.541-2.255 0-1.353 1.111-2.343 2.541-2.343 1.419 0 2.53.979 2.53 2.343zm.308 1.639c.011-.363.033-.726.033-1.078h1.375V6.301H21.29c0-.363-.022-.726-.033-1.089h1.408V4.068h1.287v5.874h-1.287V8.611h-1.408zm1.386 3.289c0-.594-.748-.946-2.046-.946-1.276 0-2.046.352-2.046.946 0 .583.77.924 2.046.924 1.298 0 2.046-.341 2.046-.924zm-2.926-4.939c0-.715-.495-1.276-1.298-1.276-.781 0-1.287.583-1.287 1.276 0 .759.517 1.287 1.287 1.287.759 0 1.298-.55 1.298-1.287z" fill="#5EC17C"/></g></svg><svg width="26" height="26" viewBox="-4 -4 26 26" id="icon_model" x="75" y="253" xmlns="http://www.w3.org/2000/svg"><path fill="#03C75A" fill-rule="evenodd" d="M0 3h18v10.276l-9 3.935-9-3.935V3zm8.42 9.06V5.663H7.355V8.01h-.396V5.757H5.915v6.032h1.044V8.933h.396v3.126H8.42zM5.598 9.671c-.353.078-.943.135-1.505.135V7.263h1.354v-.88H2.97v4.333l.526.007c.604.008 1.677-.035 2.181-.163l-.079-.888zm9.702 1.67v-.846h-1.296V9.48h-1.137v1.016h-1.023V9.48h-1.13v1.016H9.44v.846h5.86zm-.554-2.125v-.86h-.756l.18-1.087-1.123-.113-.094 1.2h-1.152l-.072-1.2-1.116.078.13 1.122H9.95v.86h4.795zm.029-2.316v-.853H9.929V6.9h4.846z"/></svg><svg width="48" height="48" viewBox="-4 -4 48 48" id="icon_video_40x40" x="210" y="48" xmlns="http://www.w3.org/2000/svg"><defs><circle id="bsb" cx="19" cy="19" r="19"/><filter id="bsa" width="103.9%" height="103.9%" x="-2%" y="-2%" filterUnits="objectBoundingBox"><feOffset in="SourceAlpha" result="shadowOffsetOuter1"/><feGaussianBlur in="shadowOffsetOuter1" result="shadowBlurOuter1" stdDeviation=".25"/><feColorMatrix in="shadowBlurOuter1" values="0 0 0 0 0 0 0 0 0 0 0 0 0 0 0 0 0 0 0.15 0"/></filter><path id="bsd" d="M15.545 24.622c0 .16.086.307.22.38a.362.362 0 0 0 .412-.044l9.58-6.054a.44.44 0 0 0 .152-.336.433.433 0 0 0-.152-.336l-9.58-6.054a.37.37 0 0 0-.412-.043.428.428 0 0 0-.22.38v12.107z"/><filter id="bsc" width="114.5%" height="111.6%" x="-7.2%" y="-5.8%" filterUnits="objectBoundingBox"><feOffset in="SourceAlpha" result="shadowOffsetOuter1"/><feGaussianBlur in="shadowOffsetOuter1" result="shadowBlurOuter1" stdDeviation=".25"/><feColorMatrix in="shadowBlurOuter1" values="0 0 0 0 0 0 0 0 0 0 0 0 0 0 0 0 0 0 0.198284647 0"/></filter></defs><g fill="none" fill-rule="evenodd" transform="translate(1 1)"><use fill="#000" filter="url(#bsa)" xlink:href="#bsb"/><use fill="#FFF" xlink:href="#bsb"/><g><use fill="#000" filter="url(#bsc)" xlink:href="#bsd"/><use fill="#363838" xlink:href="#bsd"/></g></g></svg><svg width="26" height="26" viewBox="-4 -4 26 26" id="icon_wiu" x="101" y="253" xmlns="http://www.w3.org/2000/svg"><g fill="none" fill-rule="evenodd"><path fill="#388BAB" fill-rule="nonzero" d="M12.273 2C10.442 2 9 4.045 9 4.045S7.637 2 5.727 2H0v11.455h4.484c1.9 0 3.569.892 4.517 2.454.946-1.563 2.615-2.454 4.515-2.454H18V2h-5.727z"/><path fill="#FFF" d="M3.662 10.802h1.001l.903-3.346h.021l.854 3.346h1.008L8.604 6h-.882l-.777 3.402h-.028L6.021 6h-.819l-.91 3.402h-.028L3.501 6H2.5l1.162 4.802zm5.586 0h1.001V6H9.248v4.802zm3.92.084c1.267 0 1.862-.581 1.862-1.799V6h-.91v3.045c0 .826-.287 1.092-.917 1.092-.651 0-.973-.273-.973-1.085V6h-1.001v3.108c0 1.19.672 1.778 1.939 1.778z"/></g></svg><svg width="48" height="48" viewBox="-4 -4 48 48" id="layer_notice_icon" x="210" y="96" xmlns="http://www.w3.org/2000/svg"><g fill="none" fill-rule="evenodd"><circle cx="20" cy="20" r="20" fill="#03C75A"/><path d="M18 12h3.2v11.2H18zm0 12.8h3.2V28H18z" fill="#FFF"/></g></svg><svg width="18" height="19" viewBox="-4 -4 18 19" id="my_manage_board" x="88" y="73" xmlns="http://www.w3.org/2000/svg"><g fill="none" fill-rule="evenodd"><path stroke="#A3A9A9" d="M.5 10.5h9V.5h-9v10z"/><path fill="#A3A9A9" d="M2 3h6v1H2zm0 2h6v1H2zm0 2h3v1H2z"/></g></svg><svg width="24" height="24" viewBox="-4 -4 24 24" id="my_manage_bookmark" x="292" y="24" xmlns="http://www.w3.org/2000/svg"><path fill="#03C75A" fill-rule="evenodd" d="M15.991 5.805a.178.178 0 0 0-.17-.124l-5.854.001L8.17.124a.178.178 0 0 0-.34 0L6.034 5.681H.18a.178.178 0 0 0-.105.322l4.744 3.432L2.997 15a.178.178 0 0 0 .275.2L8 11.748l4.727 3.452a.178.178 0 1 0 .275-.2l-1.82-5.564 4.743-3.432a.179.179 0 0 0 .065-.2"/></svg><svg width="24" height="24" viewBox="-4 -4 24 24" id="my_manage_bookmarkno" x="292" y="48" xmlns="http://www.w3.org/2000/svg"><path fill="#D3D3D3" fill-rule="evenodd" d="M15.991 5.805a.178.178 0 0 0-.17-.124l-5.854.001L8.17.124a.178.178 0 0 0-.34 0L6.034 5.681H.18a.178.178 0 0 0-.105.322l4.744 3.432L2.997 15a.178.178 0 0 0 .275.2L8 11.748l4.727 3.452a.178.178 0 1 0 .275-.2l-1.82-5.564 4.743-3.432a.179.179 0 0 0 .065-.2"/></svg><svg width="24" height="24" viewBox="-4 -4 24 24" id="my_manage_down" x="292" y="72" xmlns="http://www.w3.org/2000/svg"><g fill="none" fill-rule="evenodd"><circle cx="8" cy="8" r="8" fill="#FFF"/><path stroke="#A3A9A9" d="M4 6l4 4 4-4"/></g></svg><svg width="24" height="24" viewBox="-4 -4 24 24" id="my_manage_drag" x="292" y="96" xmlns="http://www.w3.org/2000/svg"><g fill="none" fill-rule="evenodd"><path d="M0 0h16v16H0z"/><g fill="#000" fill-rule="nonzero"><path d="M10.667 11.34V6.667H9.333v4.673h-2L10 14l2.667-2.66h-2zM6 2L3.333 4.66h2v4.673h1.334V4.66h2L6 2z"/><path d="M10.667 11.34V6.667H9.333v4.673h-2L10 14l2.667-2.66h-2zM6 2L3.333 4.66h2v4.673h1.334V4.66h2L6 2z"/></g></g></svg><svg width="20" height="20" viewBox="-4 -4 20 20" id="my_manage_error" x="230" y="188" xmlns="http://www.w3.org/2000/svg"><g fill="none" fill-rule="evenodd"><path fill="#FF4947" d="M6.005 0L0 12h11.996z"/><path fill="#FFF" d="M5.5 4h1v4h-1zm0 5h1v1h-1z"/></g></svg><svg width="24" height="24" viewBox="-4 -4 24 24" id="my_manage_iclose" x="292" y="120" xmlns="http://www.w3.org/2000/svg"><defs><circle id="cba" cx="8" cy="8" r="8"/></defs><g fill="none" fill-rule="evenodd"><use fill="#FFF" xlink:href="#cba"/><circle cx="8" cy="8" r="7.5" stroke="#CCC"/><path d="M12 10L8 6l-4 4" stroke="#A3A9A9"/></g></svg><svg width="24" height="24" viewBox="-4 -4 24 24" id="my_manage_iopen" x="292" y="144" xmlns="http://www.w3.org/2000/svg"><defs><circle id="cca" cx="8" cy="8" r="8"/></defs><g fill="none" fill-rule="evenodd"><use fill="#FFF" xlink:href="#cca"/><circle cx="8" cy="8" r="7.5" stroke="#CCC"/><path d="M4 6l4 4 4-4" stroke="#A3A9A9"/></g></svg><svg width="24" height="22" viewBox="-4 -4 24 22" id="my_manage_members" x="292" y="168" xmlns="http://www.w3.org/2000/svg"><defs><path id="cda" d="M.266 10h5.448V0H.266v10z"/><path id="cdc" d="M0 10h8.284V0H0z"/></defs><g fill="none" fill-rule="evenodd"><g transform="translate(6)"><mask id="cdb" fill="#fff"><use xlink:href="#cda"/></mask><path fill="#4A90E2" d="M2.993 7.151V10h2.72V7.13l.001-.016v-.05l-.003-.003a.623.623 0 0 0-.278-.476L5.43 6.58 2.945 5.056V4.51a1.99 1.99 0 0 0 .783-1.6v-.96C3.728.874 2.91 0 1.902 0c-.5 0-.954.215-1.284.564.246.399.39.875.39 1.387v.958c0 .7-.272 1.364-.742 1.838L2.439 6.08l.1.064.014.02c.213.175.36.425.416.704l.024.044v.162l.001.012v.066" mask="url(#cdb)"/></g><mask id="cdd" fill="#fff"><use xlink:href="#cdc"/></mask><path fill="#79B7FF" d="M8.284 7.114l-.002-.017v-.033l-.001-.003a.617.617 0 0 0-.302-.476l-.004-.005-2.699-1.524V4.51c.514-.353.85-.937.85-1.6v-.96C6.127.874 5.239 0 4.143 0S2.16.873 2.16 1.95v.96c0 .663.336 1.247.85 1.6v.546L.313 6.578l-.002.003a.617.617 0 0 0-.31.533c0 .015 0 .03.002.046V10h8.279V7.13l.002-.016" mask="url(#cdd)"/></g></svg><svg width="14" height="18" viewBox="-4 -4 14 18" id="my_manage_more" x="275" y="253" xmlns="http://www.w3.org/2000/svg"><path fill="none" stroke="#A3A9A9" d="M1 9l4-4-4-4"/></svg><svg width="20" height="20" viewBox="-4 -4 20 20" id="my_manage_plus" x="241" y="209" xmlns="http://www.w3.org/2000/svg"><g fill="#575756" fill-rule="evenodd"><path d="M2 5.5h8v1H2z"/><path d="M6.5 2v8h-1V2z"/></g></svg><svg width="24" height="24" viewBox="-4 -4 24 24" id="my_manage_prev" x="292" y="190" xmlns="http://www.w3.org/2000/svg"><g fill="none" fill-rule="evenodd"><circle cx="8" cy="8" r="8" fill="#CCC"/><path stroke="#FFF" d="M12 10L8 6l-4 4"/></g></svg><svg width="19" height="16" viewBox="-4 -4 19 16" id="my_manage_reset" x="42" y="279" xmlns="http://www.w3.org/2000/svg"><path fill="#666" d="M9 2L7 4h1.5c0 1.655-1.345 3-3 3-.505 0-.985-.125-1.4-.35l-.73.73c.615.39 1.345.62 2.13.62 2.21 0 4-1.79 4-4H11L9 2zM2.5 4c0-1.655 1.345-3 3-3 .505 0 .985.125 1.4.35l.73-.73A3.965 3.965 0 0 0 5.5 0c-2.21 0-4 1.79-4 4H0l2 2 2-2H2.5z"/></svg><svg width="30" height="30" viewBox="-4 -4 30 30" id="pop_ranking_app" x="262" xmlns="http://www.w3.org/2000/svg"><path d="M14.75 1H9.874C7.124 1 4.88 3.216 4.75 6h4.876c2.75 0 4.993-2.216 5.124-5M1 8.5v4.672C1 17.495 4.466 21 8.742 21 12.841 21 16 17.549 16 13.172V8.5H1zm16.84 6.25H16c.083-.554.126-1.12.126-1.696V8.5h1.715C19.583 8.5 21 9.902 21 11.625s-1.417 3.125-3.16 3.125" fill="none" fill-rule="evenodd" stroke="#FFF"/></svg><svg width="31" height="30" viewBox="-4 -4 31 30" id="pop_ranking_member" x="210" y="209" xmlns="http://www.w3.org/2000/svg"><path d="M16.268 14.38l-3.924-2.265v-1.2a4.288 4.288 0 0 0 1.827-3.519V5.288C14.171 2.92 12.262 1 9.907 1 7.55 1 5.64 2.92 5.64 5.288v2.108a4.29 4.29 0 0 0 1.828 3.519v1.2l-5.797 3.347a1.374 1.374 0 0 0-.667 1.278v3.117H13.57m1.049-2.619H23m-4.19 4.191v-8.381" fill="none" fill-rule="evenodd" stroke="#FFF"/></svg><svg width="30" height="30" viewBox="-4 -4 30 30" id="pop_ranking_search" x="262" y="30" xmlns="http://www.w3.org/2000/svg"><path d="M15.144 3.428A8.285 8.285 0 1 1 3.427 15.145 8.286 8.286 0 0 1 15.144 3.428zm.069 11.787l5.764 5.763" fill="none" fill-rule="evenodd" stroke="#FFF" stroke-width="1.2"/></svg><svg width="29" height="29" viewBox="-4 -4 29 29" id="pop_ranking_writing" x="262" y="60" xmlns="http://www.w3.org/2000/svg"><path d="M18.233 6.162a3.107 3.107 0 0 0 .748-2.023C18.98 2.406 17.563 1 15.815 1c-.778 0-1.49.28-2.041.741L1 14.344v4.439h4.477L18.233 6.162zM8.692 18.793H21M12.015 3.67l4.06 4.023" fill="none" fill-rule="evenodd" stroke="#FFF"/></svg><svg width="28" height="28" viewBox="-4 -4 28 28" id="ranking_level_down" x="262" y="89" xmlns="http://www.w3.org/2000/svg"><title>cf / blt / level down</title><g transform="translate(2 2)" fill="none" fill-rule="evenodd"><path fill="#1D8FF0" fill-rule="nonzero" d="M5 8.5L8 12l3-3.5H8.5v-4h-1v4z"/><circle stroke="#1D8FF0" cx="8" cy="8" r="7.5"/></g></svg><svg width="28" height="28" viewBox="-4 -4 28 28" id="ranking_level_up" x="262" y="117" xmlns="http://www.w3.org/2000/svg"><title>cf / blt / lavel up</title><g transform="translate(2 2)" fill="none" fill-rule="evenodd"><path fill="#FF2F3B" fill-rule="nonzero" d="M11 7.5L8 4 5 7.5h2.5v4h1v-4z"/><circle stroke="#FF2F3B" cx="8" cy="8" r="7.5"/></g></svg><svg width="24" height="24" viewBox="-4 -4 24 24" id="ranking_point_down" x="292" y="214" xmlns="http://www.w3.org/2000/svg"><g fill="none" fill-rule="evenodd"><path fill="#999" fill-rule="nonzero" d="M5 8.5L8 12l3-3.5H8.5v-4h-1v4z"/><circle cx="8" cy="8" r="7.5" stroke="#999"/></g></svg><svg width="24" height="24" viewBox="-4 -4 24 24" id="ranking_point_up" x="292" y="238" xmlns="http://www.w3.org/2000/svg"><g fill="none" fill-rule="evenodd"><path fill="#999" fill-rule="nonzero" d="M11 7.5L8 4 5 7.5h2.5v4h1v-4z"/><circle cx="8" cy="8" r="7.5" stroke="#999"/></g></svg><svg width="72" height="72" viewBox="-4 -4 72 72" id="thumb_64x64" x="106" xmlns="http://www.w3.org/2000/svg"><rect width="63" height="63" x=".5" y=".5" fill="none" stroke="#000" stroke-opacity=".05" rx="24"/></svg><svg width="88" height="88" viewBox="-4 -4 88 88" id="thumb_80x80" y="29" xmlns="http://www.w3.org/2000/svg"><rect width="79" height="79" x=".5" y=".5" fill="none" stroke="#000" stroke-opacity=".05" rx="30"/></svg><svg width="26" height="26" viewBox="-4 -4 26 26" id="user_mycafe_bookmark" x="127" y="253" xmlns="http://www.w3.org/2000/svg"><title>cf / icon / fvon</title><g transform="translate(1 1)" fill="none" fill-rule="evenodd"><path d="M12.995 6.628a.111.111 0 0 0-.107-.077H9.23L8.106 3.077a.111.111 0 0 0-.212 0L6.771 6.551H3.11a.111.111 0 0 0-.065.202l2.965 2.144-1.138 3.478a.111.111 0 0 0 .172.125L8 10.343l2.955 2.157c.04.028.093.028.132 0a.111.111 0 0 0 .04-.125L9.99 8.897l2.965-2.144a.112.112 0 0 0 .04-.125" fill="#A3A9A9"/><circle stroke="#A3A9A9" cx="8" cy="8" r="7.5"/></g></svg><svg width="26" height="26" viewBox="-4 -4 26 26" id="user_mycafe_bookmark_on" x="153" y="253" xmlns="http://www.w3.org/2000/svg"><title>cf / icon / fvon</title><g transform="translate(1 1)" fill="none" fill-rule="evenodd"><path d="M12.995 6.628a.111.111 0 0 0-.107-.077H9.23L8.106 3.077a.111.111 0 0 0-.212 0L6.771 6.551H3.11a.111.111 0 0 0-.065.202l2.965 2.144-1.138 3.478a.111.111 0 0 0 .172.125L8 10.343l2.955 2.157c.04.028.093.028.132 0a.111.111 0 0 0 .04-.125L9.99 8.897l2.965-2.144a.112.112 0 0 0 .04-.125" fill="#03C75A"/><circle stroke="#03C75A" cx="8" cy="8" r="7.5"/></g></svg><svg width="20" height="20" viewBox="-4 -4 20 20" id="user_mycafe_new" x="22" y="279" xmlns="http://www.w3.org/2000/svg"><defs><path id="cua" d="M10.667 0H1.333C.6 0 0 .6 0 1.333v9.334C0 11.4.6 12 1.333 12h9.334C11.4 12 12 11.4 12 10.667V1.333C12 .6 11.4 0 10.667 0zM7.333 9.333H2.667V8h4.666v1.333zm2-2.666H2.667V5.333h6.666v1.334zm0-2.667H2.667V2.667h6.666V4z"/></defs><use fill="#A3A9A9" xlink:href="#cua"/></svg></svg>